<?xml version="1.0" encoding="UTF-8"?>
<svg version="1.1" xmlns="http://www.w3.org/2000/svg" width="181" height="288">
<path d="M0 0 C4.70545958 7.450311 3.39972205 14.66169655 1.75 22.9375 C-1.63742806 37.49556292 -7.49526642 51.09305815 -18 62 C-18.66 62 -19.32 62 -20 62 C-20.2165625 62.57234375 -20.433125 63.1446875 -20.65625 63.734375 C-22.44414884 66.74885559 -24.65234274 68.22666458 -27.5 70.25 C-28.4796875 70.95640625 -29.459375 71.6628125 -30.46875 72.390625 C-33 74 -33 74 -35 74 C-35 74.66 -35 75.32 -35 76 C-34.41299316 76.28593018 -33.82598633 76.57186035 -33.22119141 76.86645508 C-29.81350144 78.60550811 -26.61467943 80.65656031 -23.375 82.6875 C-22.65715332 83.13665771 -21.93930664 83.58581543 -21.19970703 84.04858398 C-16.54880338 86.97726042 -12.018749 90.03022303 -7.546875 93.2265625 C-4.45725198 95.37792577 -1.29785558 97.41221835 1.875 99.4375 C8.3043451 103.54588541 14.69481972 107.70218324 21 112 C21.93714844 112.63550781 22.87429687 113.27101563 23.83984375 113.92578125 C44.42830093 128.3348137 57.37908277 149.33141108 62 174 C65.59987446 195.21897834 62.22264762 216.51521487 49.77954102 234.34692383 C45.41889845 240.18136321 40.03357291 244.04320037 34 248 C32.85870327 248.77896464 31.71809188 249.55893424 30.578125 250.33984375 C7.93889913 265.62116325 7.93889913 265.62116325 -6 263 C-8.8616978 260.86301787 -9.74800548 258.70276298 -10.2734375 255.15234375 C-11.05049649 238.20648048 -2.60275162 218.865186 8.140625 206.02734375 C18.08814916 195.18119871 18.08814916 195.18119871 23 192 C23.99 192 24.98 192 26 192 C26 191.34 26 190.68 26 190 C25.23558594 189.78988281 24.47117187 189.57976562 23.68359375 189.36328125 C18.53373539 187.45734215 13.8676355 184.83030526 9.0625 182.1875 C8.01070557 181.61362549 6.95891113 181.03975098 5.87524414 180.44848633 C-2.44943612 175.89098929 -10.71680381 171.23414625 -18.9621582 166.53491211 C-24.29922126 163.49911326 -29.67285207 160.57265159 -35.125 157.75 C-53.91146444 147.83375931 -70.14881078 134.80498593 -77 113.95703125 C-82.65428353 92.94375641 -82.91680034 66.40536007 -73.375 46.5 C-73.08109375 45.87754395 -72.7871875 45.25508789 -72.484375 44.61376953 C-66.26961037 32.76213758 -55.12053413 26.63414047 -43.9375 20.25 C-42.50379395 19.41928478 -41.0708458 18.5872601 -39.63867188 17.75390625 C-37.57319238 16.55273691 -35.50719701 15.35258501 -33.43811035 14.15763855 C-27.97519955 11.00214569 -22.58347592 7.77758567 -17.3828125 4.19921875 C-11.46105706 0.23430637 -7.082394 -0.81372186 0 0 Z " fill="#CBDA2D" transform="translate(91,13)"/>
<path d="M0 0 C4.70545958 7.450311 3.39972205 14.66169655 1.75 22.9375 C-1.63742806 37.49556292 -7.49526642 51.09305815 -18 62 C-18.66 62 -19.32 62 -20 62 C-20.2165625 62.57234375 -20.433125 63.1446875 -20.65625 63.734375 C-22.44414884 66.74885559 -24.65234274 68.22666458 -27.5 70.25 C-28.4796875 70.95640625 -29.459375 71.6628125 -30.46875 72.390625 C-33 74 -33 74 -35 74 C-35.33 74.66 -35.66 75.32 -36 76 C-41.35616313 72.36569545 -46.68941999 68.70059705 -52 65 C-52.95390625 64.33742188 -53.9078125 63.67484375 -54.890625 62.9921875 C-60.79257377 58.67613653 -64.6708642 53.9874074 -67 47 C-67.62366601 41.69883893 -66.78679935 38.35593836 -63.77075195 34.08007812 C-57.69787319 26.94635042 -47.90184973 22.40426277 -39.9375 17.6875 C-37.72646431 16.37776991 -35.51552714 15.0678735 -33.3046875 13.7578125 C-32.23186523 13.12262695 -31.15904297 12.48744141 -30.05371094 11.83300781 C-27.32435415 10.19469547 -24.62960738 8.51544906 -21.9453125 6.8046875 C-8.90640565 -1.41371518 -8.90640565 -1.41371518 0 0 Z " fill="#2C8A80" transform="translate(91,13)"/>
<path d="M0 0 C8.96966889 4.50494581 15.32034972 10.71050272 21 18.875 C23.16480807 25.64002522 22.69730196 32.49833681 20.046875 39.05078125 C15.85245838 46.86053458 10.16389122 51.0558774 3 56 C2.43394043 56.39155273 1.86788086 56.78310547 1.28466797 57.18652344 C-9.82200044 64.78367314 -20.41049082 71.75897633 -34.3203125 71.50390625 C-37.29990852 70.94360321 -38.24445782 70.4267789 -40 68 C-44.22520897 55.32437309 -37.76526816 39.80597525 -32.125 28.4375 C-26.79752681 18.15035249 -13.64405379 -4.01414956 0 0 Z " fill="#298278" transform="translate(122,205)"/>
<path d="M0 0 C0.33 1.32 0.66 2.64 1 4 C1.99 3.67 2.98 3.34 4 3 C2.67652988 7.85272378 1.76687864 9.23312136 -2 13 C-1.34 8.71 -0.68 4.42 0 0 Z " fill="#A0B756" transform="translate(144,230)"/>
</svg>
