<?xml version="1.0" encoding="UTF-8"?>
<svg version="1.1" xmlns="http://www.w3.org/2000/svg" width="882" height="182">
<path d="M0 0 C4.62 0 9.24 0 14 0 C14.33 12.21 14.66 24.42 15 37 C17.97 35.02 20.94 33.04 24 31 C33.67379378 26.58370284 45.33800672 27.42351986 55.21875 30.74609375 C64.80296899 35.02476294 71.2861632 42.30969473 75 52 C79.18936659 63.04669823 77.6577487 75.37537206 73 86 C67.6721784 95.2063653 59.19984357 101.20132426 49 104 C45.84117715 104.41833334 42.74592778 104.47740858 39.5625 104.4375 C38.30626831 104.42722778 38.30626831 104.42722778 37.0246582 104.41674805 C27.67528871 104.17308952 21.81084369 101.28693264 15 95 C14.67 97.97 14.34 100.94 14 104 C9.38 104 4.76 104 0 104 C0 69.68 0 35.36 0 0 Z M18.40625 50.87109375 C14.00557015 57.53323408 13.04122455 64.08734744 14 72 C15.77062969 79.63932053 19.37685049 84.78739607 26 89 C33.09100509 92.41148011 39.5143494 93.05691318 47 90.4375 C53.27035227 87.71748417 58.03294463 83.71725629 60.9375 77.4375 C63.31872448 69.72472889 63.30453241 60.89054208 60 53.5 C56.50446337 47.49636647 51.89496646 44.13730825 45.5 41.625 C34.57224126 39.67361451 25.44787972 41.85315757 18.40625 50.87109375 Z " fill="#2C3791" transform="translate(221,47)"/>
<path d="M0 0 C4.95 0 9.9 0 15 0 C15.33 11.88 15.66 23.76 16 36 C19.96 33.525 19.96 33.525 24 31 C32.80586426 26.99733443 43.88604018 27.09525842 53 30 C59.57284476 32.94839036 64.7609255 36.47200894 68 43 C70.76731844 50.69510167 71.41423678 57.89070463 71.29296875 66.01171875 C71.28872391 67.10595657 71.28447906 68.2001944 71.28010559 69.32759094 C71.26347481 72.78115722 71.2258522 76.2341137 71.1875 79.6875 C71.17243299 82.04621546 71.15874814 84.40494018 71.14648438 86.76367188 C71.1136225 92.50934521 71.06194962 98.25456966 71 104 C66.38 104 61.76 104 57 104 C56.970271 102.07136108 56.970271 102.07136108 56.93994141 100.10375977 C56.86345804 95.30083734 56.77480862 90.4982011 56.68261719 85.69555664 C56.64450312 83.62302327 56.60962067 81.55042771 56.578125 79.4777832 C56.53209059 76.48626585 56.47416187 73.49517023 56.4140625 70.50390625 C56.40251129 69.58791153 56.39096008 68.67191681 56.37905884 67.72816467 C56.17757754 58.8024819 55.59503232 51.43800774 49 45 C43.89047124 41.97686215 38.13855847 41.4891789 32.3359375 42.43359375 C26.7804179 43.91898192 22.93063338 45.7817593 19 50 C15.73904229 55.9816008 15.53164813 61.23279273 15.48828125 67.96484375 C15.47033005 68.99815323 15.45237885 70.03146271 15.43388367 71.09608459 C15.37996774 74.37651565 15.34594459 77.65680275 15.3125 80.9375 C15.27931046 83.16994182 15.24481929 85.4023647 15.20898438 87.63476562 C15.12425179 93.08973959 15.05735113 98.54467223 15 104 C10.05 104 5.1 104 0 104 C0 69.68 0 35.36 0 0 Z " fill="#2484C6" transform="translate(728,47)"/>
<path d="M0 0 C2.15502531 3.23253796 2.46856135 4.25150923 2 8 C1.50622329 8.46967257 1.01244658 8.93934513 0.50370693 9.4232502 C-2.10509841 12.15877879 -1.40266242 15.90219449 -1.36889648 19.48779297 C-1.37266296 20.35492416 -1.37642944 21.22205536 -1.38031006 22.11546326 C-1.38675081 24.00118809 -1.38640475 25.88694537 -1.38012505 27.77267075 C-1.37101664 30.76754098 -1.38123976 33.76178466 -1.39674377 36.75662231 C-1.43682564 45.27263369 -1.43806037 53.7885975 -1.43579102 62.3046875 C-1.43573959 67.51488292 -1.45507992 72.72474497 -1.48512459 77.93484879 C-1.49586303 80.86669557 -1.48386465 83.79788103 -1.47129822 86.72970581 C-1.50648618 105.0846025 -5.70436566 118.96437971 -18.51171875 132.67578125 C-30.59723551 143.96445075 -45.2344047 148.55821352 -61.4921875 148.2421875 C-76.55927284 147.20192103 -90.9232403 140.24888279 -101 129 C-110.28957288 117.21062886 -114.17925526 105.69483028 -114.09765625 90.88671875 C-114.0962413 89.91716751 -114.09482635 88.94761627 -114.09336853 87.94868469 C-114.08778513 84.86159133 -114.07523564 81.77457133 -114.0625 78.6875 C-114.05748286 76.59049584 -114.05292032 74.49349054 -114.04882812 72.39648438 C-114.03782112 67.26429479 -114.02056788 62.13215982 -114 57 C-114.66 57 -115.32 57 -116 57 C-117.32 50.64 -117.32 50.64 -116 48 C-112.88291635 46.44145818 -110.3141692 47.31215356 -107 48 C-105.875 54.75 -105.875 54.75 -107 57 C-107.66 57 -108.32 57 -109 57 C-108.95543842 62.88635435 -108.88518518 68.77167733 -108.79248047 74.6574707 C-108.76448764 76.65413138 -108.74316682 78.65089841 -108.72900391 80.64770508 C-108.58920251 99.25527129 -106.33976812 113.6896726 -93.5625 128.1875 C-83.30698494 137.90219689 -68.9836679 142.53199007 -55.11328125 142.25 C-39.7949313 141.0199192 -28.47115983 134.19408157 -18.21484375 123.0625 C-11.29995333 114.57363197 -7.83134887 104.29677614 -7.88647461 93.47753906 C-7.88632858 92.72593002 -7.88618256 91.97432098 -7.8860321 91.19993591 C-7.88672738 88.72180266 -7.89450174 86.24374508 -7.90234375 83.765625 C-7.9042093 82.04498333 -7.90563256 80.32434112 -7.90663147 78.60369873 C-7.91044587 74.07947315 -7.92026698 69.55527977 -7.93133545 65.03106689 C-7.94157271 60.41264278 -7.94613405 55.79421345 -7.95117188 51.17578125 C-7.9618902 42.11717337 -7.97895371 33.05858936 -8 24 C-8.66 24.33 -9.32 24.66 -10 25 C-10.00879936 26.3760994 -10.00879936 26.3760994 -10.01777649 27.77999878 C-10.07587305 36.45957734 -10.14804612 45.1389032 -10.23571491 53.8182354 C-10.28028977 58.27952108 -10.31957367 62.74071815 -10.34643555 67.20214844 C-10.37259788 71.51414378 -10.41308992 75.82579573 -10.46318626 80.13757706 C-10.47976808 81.77600939 -10.4913361 83.414501 -10.49761391 85.05300522 C-10.56178217 100.27243773 -12.88203158 113.78586683 -23.75 125.3125 C-33.73783354 134.59642908 -45.97971511 139.35740379 -59.58203125 139.15234375 C-72.17324553 138.35903623 -82.95776553 133.82061107 -92 125 C-100.61080708 115.06787942 -105.15178775 104.88442288 -105.09765625 91.73046875 C-105.0962413 91.04946609 -105.09482635 90.36846344 -105.09336853 89.66682434 C-105.08780298 87.50700353 -105.07525703 85.34728911 -105.0625 83.1875 C-105.05748054 81.71679838 -105.05291841 80.24609512 -105.04882812 78.77539062 C-105.03784488 75.1835596 -105.02060422 71.5917902 -105 68 C-105.66 68 -106.32 68 -107 68 C-108.38125018 65.23749964 -108.19079306 63.05268901 -108 60 C-106 58 -106 58 -102.5 57.6875 C-100.7675 57.8421875 -100.7675 57.8421875 -99 58 C-97 61 -97 61 -97.3125 64.125 C-98 67 -98 67 -99 68 C-99.24454794 72.11099911 -99.22863397 76.2258442 -99.24023438 80.34350586 C-99.24981605 82.39805553 -99.28076173 84.45155022 -99.3125 86.50585938 C-99.36672921 100.35464327 -96.2930033 111.29831341 -86.875 121.75 C-78.98415228 129.13457651 -68.73602981 132.44786641 -58.1875 133.3125 C-45.39179681 132.88004085 -34.4718269 127.41808681 -25.75390625 118.20703125 C-19.57319071 110.42951615 -16.75337334 101.32027972 -16.74121094 91.45996094 C-16.7377063 90.74199341 -16.73420166 90.02402588 -16.73059082 89.28430176 C-16.72185728 86.93422503 -16.72759019 84.58445426 -16.734375 82.234375 C-16.73302653 80.59246768 -16.73108448 78.95056075 -16.72857666 77.30865479 C-16.72563728 73.87923352 -16.72988698 70.44991687 -16.73925781 67.02050781 C-16.75068781 62.62322609 -16.74406309 58.22618758 -16.73211288 53.82891464 C-16.72489293 50.4437679 -16.72718221 47.05867905 -16.73236847 43.67353058 C-16.73370273 42.0515973 -16.73206508 40.42965877 -16.72740936 38.80773163 C-16.72233792 36.54583236 -16.73006115 34.28433054 -16.74121094 32.02246094 C-16.74280212 30.73563416 -16.74439331 29.44880737 -16.74603271 28.12298584 C-16.75903435 24.83556191 -16.75903435 24.83556191 -19 22 C-19.375 19 -19.375 19 -19 16 C-17.375 14.0625 -17.375 14.0625 -15 13 C-9.57446809 13.42553191 -9.57446809 13.42553191 -8 15 C-8.37904208 11.70924004 -8.37904208 11.70924004 -10 9 C-10.58184143 2.71611253 -10.58184143 2.71611253 -8.375 0 C-5.16403572 -1.35198496 -3.30053834 -1.00451167 0 0 Z M-5 3 C-5.33 4.32 -5.66 5.64 -6 7 C-5.01 7 -4.02 7 -3 7 C-3 5.68 -3 4.36 -3 3 C-3.66 3 -4.32 3 -5 3 Z M-14 17 C-14.33 18.32 -14.66 19.64 -15 21 C-14.01 21.495 -14.01 21.495 -13 22 C-12.34 21.67 -11.68 21.34 -11 21 C-11.33 19.68 -11.66 18.36 -12 17 C-12.66 17 -13.32 17 -14 17 Z M-113 51 C-113 51.99 -113 52.98 -113 54 C-112.01 54 -111.02 54 -110 54 C-110 53.01 -110 52.02 -110 51 C-110.99 51 -111.98 51 -113 51 Z M-103 61 C-103.33 62.32 -103.66 63.64 -104 65 C-103.01 64.67 -102.02 64.34 -101 64 C-101.33 63.01 -101.66 62.02 -102 61 C-102.33 61 -102.66 61 -103 61 Z " fill="#2563AF" transform="translate(137,19)"/>
<path d="M0 0 C7.33207068 7.02171848 10.68362006 15.3355404 12.1875 25.3125 C12.1875 28.2825 12.1875 31.2525 12.1875 34.3125 C-7.6125 34.3125 -27.4125 34.3125 -47.8125 34.3125 C-43.46278009 44.0993698 -40.61574982 49.47557231 -30.8125 53.3125 C-23.02716284 55.64810115 -15.17462884 54.45367497 -7.8125 51.3125 C-5.53868344 49.79662229 -3.78178098 48.2299578 -1.8125 46.3125 C2.4617558 47.8955577 4.45281794 50.81818404 7.1875 54.3125 C5.03147053 59.800575 0.78204593 62.15049059 -4.375 64.5 C-15.02872305 69.13446185 -29.11160328 69.15698131 -40 65.3125 C-50.87363141 60.30784144 -56.28321595 53.23130975 -60.8125 42.3125 C-63.79423882 33.36728354 -63.03309449 20.28941611 -59.26953125 11.73828125 C-53.66540856 2.40809307 -45.50316872 -5.01483282 -34.8125 -7.6875 C-22.24673939 -10.07066149 -9.99337921 -8.27834384 0 0 Z M-42.73046875 11.4375 C-45.96372573 15.98402763 -46.85557856 18.57097133 -47.8125 24.3125 C-32.6325 24.3125 -17.4525 24.3125 -1.8125 24.3125 C-4.77047877 14.45257076 -6.71558588 10.41062427 -15 5.375 C-25.02755854 2.58043451 -35.42667343 3.34531129 -42.73046875 11.4375 Z " fill="#2484C6" transform="translate(620.8125,83.6875)"/>
<path d="M0 0 C5.0076385 5.90511137 6.63620762 13.45598407 6.61743164 21.02270508 C6.61731834 22.55372612 6.61731834 22.55372612 6.61720276 24.11567688 C6.61204147 25.2054332 6.60688019 26.29518951 6.6015625 27.41796875 C6.60014755 28.5428923 6.5987326 29.66781586 6.59727478 30.826828 C6.59168556 34.41322509 6.57913497 37.99955934 6.56640625 41.5859375 C6.56138986 44.02018139 6.55682719 46.45442626 6.55273438 48.88867188 C6.54171964 54.85028456 6.52446236 60.81185038 6.50390625 66.7734375 C1.88390625 66.7734375 -2.73609375 66.7734375 -7.49609375 66.7734375 C-7.99109375 63.3084375 -7.99109375 63.3084375 -8.49609375 59.7734375 C-9.15609375 60.3715625 -9.81609375 60.9696875 -10.49609375 61.5859375 C-16.95327942 66.29430205 -23.15206335 67.30771882 -30.93359375 67.2109375 C-31.77035645 67.20481445 -32.60711914 67.19869141 -33.46923828 67.19238281 C-39.53048041 67.03845402 -44.39526422 66.24634271 -49.49609375 62.7734375 C-50.88828125 61.9071875 -50.88828125 61.9071875 -52.30859375 61.0234375 C-57.08178583 56.1138685 -58.74670052 51.49552591 -58.93359375 44.6484375 C-58.64045461 37.56868305 -56.83526613 33.84020192 -51.68359375 29.0234375 C-42.8554246 21.70958934 -31.9428386 22.63374427 -21.05859375 22.7109375 C-19.24584961 22.71770508 -19.24584961 22.71770508 -17.39648438 22.72460938 C-14.42963586 22.73633605 -11.46289105 22.75274854 -8.49609375 22.7734375 C-8.7730669 21.17801175 -9.06182301 19.5846289 -9.35546875 17.9921875 C-9.59475098 16.6609082 -9.59475098 16.6609082 -9.83886719 15.30273438 C-10.87775486 11.30463768 -12.43733629 9.5541261 -15.49609375 6.7734375 C-21.67428507 3.45831045 -29.90108717 3.83781399 -36.54296875 5.56640625 C-40.32565971 6.90057158 -43.75473304 8.3225955 -47.1875 10.41015625 C-49.49609375 11.7734375 -49.49609375 11.7734375 -51.49609375 11.7734375 C-52.33723546 10.34049252 -53.16875062 8.90189345 -53.99609375 7.4609375 C-54.46015625 6.66042969 -54.92421875 5.85992187 -55.40234375 5.03515625 C-56.49609375 2.7734375 -56.49609375 2.7734375 -56.49609375 -0.2265625 C-38.81872211 -9.45711124 -16.4292528 -15.01885291 0 0 Z M-42.49609375 37.7734375 C-44.5774138 41.23712684 -45.06247033 43.7278905 -44.49609375 47.7734375 C-41.62091582 52.04513043 -39.36765853 54.22983122 -34.49609375 55.7734375 C-27.09695775 56.65112812 -20.5801698 56.31621429 -14.49609375 51.7734375 C-11.85328913 49.68641583 -10.05125133 47.77163666 -8.49609375 44.7734375 C-8.19512928 41.95846803 -8.19512928 41.95846803 -8.33984375 39.02734375 C-8.37368164 37.54923218 -8.37368164 37.54923218 -8.40820312 36.04125977 C-8.43720703 35.29287842 -8.46621094 34.54449707 -8.49609375 33.7734375 C-12.66252072 33.65640303 -16.82851965 33.58590649 -20.99609375 33.5234375 C-22.16914063 33.48992187 -23.3421875 33.45640625 -24.55078125 33.421875 C-31.67540051 33.3418231 -36.53653592 33.7152624 -42.49609375 37.7734375 Z " fill="#2C3892" transform="translate(367.49609375,84.2265625)"/>
<path d="M0 0 C6.2118723 6.49423014 8.88558866 14.23277111 8.86352539 23.12426758 C8.86341209 24.65528862 8.86341209 24.65528862 8.86329651 26.21723938 C8.85813522 27.3069957 8.85297394 28.39675201 8.84765625 29.51953125 C8.8462413 30.6444548 8.84482635 31.76937836 8.84336853 32.9283905 C8.83777931 36.51478759 8.82522872 40.10112184 8.8125 43.6875 C8.80748361 46.12174389 8.80292094 48.55598876 8.79882812 50.99023438 C8.78781339 56.95184706 8.77055611 62.91341288 8.75 68.875 C4.13 68.875 -0.49 68.875 -5.25 68.875 C-5.26458252 67.52865479 -5.27916504 66.18230957 -5.29418945 64.79516602 C-5.35245086 59.76853758 -5.4296814 54.74234411 -5.51245117 49.71606445 C-5.54556998 47.54654027 -5.57364193 45.37693262 -5.59643555 43.20727539 C-5.63022212 40.07662611 -5.68254978 36.94673274 -5.73828125 33.81640625 C-5.74467117 32.85666397 -5.7510611 31.89692169 -5.75764465 30.90809631 C-5.89544103 24.50163416 -6.35817229 17.48267773 -10.52436829 12.28517151 C-14.65071122 8.51664664 -19.09311702 6.91633398 -24.63671875 6.84375 C-31.78203808 7.28144184 -37.51039897 9.13539897 -42.625 14.25 C-46.47858909 20.47502852 -46.57982201 26.4113224 -46.6640625 33.5234375 C-46.68342865 34.53596588 -46.7027948 35.54849426 -46.7227478 36.59170532 C-46.78230723 39.81105242 -46.82883448 43.03043574 -46.875 46.25 C-46.91320151 48.43881728 -46.9522545 50.62761988 -46.9921875 52.81640625 C-47.08798942 58.16915093 -47.17210775 63.52196596 -47.25 68.875 C-52.2 68.875 -57.15 68.875 -62.25 68.875 C-62.25 44.125 -62.25 19.375 -62.25 -6.125 C-57.63 -6.125 -53.01 -6.125 -48.25 -6.125 C-47.92 -3.485 -47.59 -0.845 -47.25 1.875 C-46.66992188 1.46507813 -46.08984375 1.05515625 -45.4921875 0.6328125 C-31.07697602 -9.31035317 -14.71058278 -9.61845797 0 0 Z " fill="#2C3792" transform="translate(459.25,82.125)"/>
<path d="M0 0 C0.77980225 0.09031494 1.55960449 0.18062988 2.36303711 0.27368164 C8.16475412 1.02596833 14.101738 2.0170529 19.0625 5.3125 C20.0625 8.3125 20.0625 8.3125 18.84765625 10.79296875 C18.27917969 11.68628906 17.71070313 12.57960938 17.125 13.5 C16.55910156 14.40105469 15.99320313 15.30210938 15.41015625 16.23046875 C14.74306641 17.26107422 14.74306641 17.26107422 14.0625 18.3125 C13.21429687 17.9515625 12.36609375 17.590625 11.4921875 17.21875 C1.95670067 13.4464695 -8.14045314 10.73514956 -18.1875 14.625 C-21.15139428 16.17936172 -21.15139428 16.17936172 -22.9375 19.3125 C-23.09775399 22.85828685 -23.09775399 22.85828685 -21.9375 26.3125 C-15.51108244 30.69313757 -7.06648791 31.38129771 0.41015625 32.88671875 C8.09047323 34.53944519 14.59017473 36.50414325 20 42.4375 C22.97280218 47.6836215 22.47391702 53.46727327 22.0625 59.3125 C20.05290956 65.69590493 15.52148953 69.25614659 9.93359375 72.578125 C-2.55706063 78.27209907 -19.2942495 76.60012391 -32.0625 72.578125 C-35.30074128 71.15259487 -38.05477566 69.35442974 -40.9375 67.3125 C-39.37108249 63.00485185 -37.25413844 59.25078536 -34.9375 55.3125 C-34.1640625 55.65023437 -33.390625 55.98796875 -32.59375 56.3359375 C-21.54236637 61.06833693 -10.33038976 65.15163465 1.6875 61 C5.25113616 59.56702961 5.25113616 59.56702961 7.0625 56.3125 C7.64600505 53.85540625 7.64600505 53.85540625 7.0625 51.3125 C2.58758143 46.31112042 -3.39866427 45.91915192 -9.6875 44.8125 C-20.53120024 42.87612496 -29.58029052 40.95722114 -36.9375 32.3125 C-39.07149287 25.91052138 -39.1234128 17.96894467 -36.375 11.8125 C-35.570625 10.9875 -34.76625 10.1625 -33.9375 9.3125 C-33.43992187 8.79300781 -32.94234375 8.27351563 -32.4296875 7.73828125 C-23.66345885 -0.68137557 -11.52449548 -1.37074396 0 0 Z " fill="#2484C6" transform="translate(853.9375,75.6875)"/>
<path d="M0 0 C26.73 0 53.46 0 81 0 C81 4.29 81 8.58 81 13 C70.11 13 59.22 13 48 13 C48 41.05 48 69.1 48 98 C43.05 98 38.1 98 33 98 C33 69.95 33 41.9 33 13 C22.11 13 11.22 13 0 13 C0 8.71 0 4.42 0 0 Z " fill="#2484C6" transform="translate(480,53)"/>
<path d="M0 0 C1.59375 1.87890625 1.59375 1.87890625 3.59375 6.87890625 C0.29375 9.18890625 -3.00625 11.49890625 -6.40625 13.87890625 C-7.72625 12.88890625 -9.04625 11.89890625 -10.40625 10.87890625 C-10.40625 10.21890625 -10.40625 9.55890625 -10.40625 8.87890625 C-18.14075617 4.68938208 -25.19914025 2.36520924 -33.953125 4.5 C-40.38257447 6.69185778 -44.78558486 10.09818521 -48.40625 15.87890625 C-51.47062803 23.41645354 -51.85924592 32.18060112 -48.84375 39.81640625 C-45.68628722 45.83324965 -41.24483399 49.42148011 -34.90625 51.75390625 C-27.90440982 53.74427706 -21.7999598 53.38396455 -15.40625 49.87890625 C-12.57821816 47.70349714 -9.96528363 45.36307453 -7.40625 42.87890625 C-6.13416378 43.50135224 -4.86363118 44.12697392 -3.59375 44.75390625 C-2.53220703 45.27597656 -2.53220703 45.27597656 -1.44921875 45.80859375 C0.59375 46.87890625 0.59375 46.87890625 3.59375 48.87890625 C3.10298087 53.13223868 0.64870094 56.06950692 -2.40625 58.87890625 C-13.18711514 66.12571246 -23.75176782 66.97548183 -36.40625 65.87890625 C-46.99253442 63.74222499 -54.62029895 57.73643102 -60.93359375 49.1796875 C-66.99953178 39.70266495 -67.60535499 28.62447402 -65.28125 17.87890625 C-62.74327813 8.58874875 -57.4095318 1.26805078 -49.40625 -4.12109375 C-33.04774376 -12.73553223 -14.24399584 -12.58025043 0 0 Z " fill="#2484C6" transform="translate(709.40625,85.12109375)"/>
<path d="M0 0 C2 2 2 2 2.25 5.5 C2 9 2 9 0 11 C-0.20763156 14.03477053 -0.29046426 16.98020887 -0.28710938 20.0168457 C-0.29394241 20.95210587 -0.30077545 21.88736603 -0.30781555 22.85096741 C-0.32143325 24.88839108 -0.3304674 26.92584924 -0.33552551 28.96331215 C-0.34380545 32.19743865 -0.36430837 35.43128151 -0.38806152 38.66532898 C-0.4363844 45.54767712 -0.46918863 52.43005419 -0.5 59.3125 C-0.53576274 67.25196665 -0.57799815 75.19129793 -0.63594055 83.13063622 C-0.6558485 86.29937492 -0.6643005 89.46800717 -0.67224121 92.63679504 C-0.79568194 116.0269797 -4.44109386 135.62440518 -20.75 153.3125 C-34.82480338 166.49719723 -52.40909963 171.5844106 -71.25390625 171.27734375 C-88.71791111 170.56862883 -104.27400877 162.11982538 -116.21875 149.69140625 C-127.61385992 136.34597944 -132.45170215 121.18958928 -132.40625 103.8515625 C-132.41708618 102.63600677 -132.42792236 101.42045105 -132.43908691 100.1680603 C-132.48467519 95.01165365 -132.49648092 89.85530269 -132.51123047 84.69873047 C-132.52689821 80.91615833 -132.55987105 77.13400819 -132.59375 73.3515625 C-132.59072876 72.18694489 -132.58770752 71.02232727 -132.58459473 69.82241821 C-132.59470581 68.73713837 -132.60481689 67.65185852 -132.61523438 66.53369141 C-132.61728882 65.58313873 -132.61934326 64.63258606 -132.62145996 63.65322876 C-133.0680182 60.52325296 -134.36122262 58.66733521 -136 56 C-135.33719617 53.56971928 -134.7989028 51.7989028 -133 50 C-130.125 49.6875 -130.125 49.6875 -127 50 C-125.0625 51.6875 -125.0625 51.6875 -124 54 C-124.41025641 58.41025641 -124.41025641 58.41025641 -126 60 C-126.11451561 61.67975232 -126.15961861 63.36429001 -126.17700195 65.04785156 C-126.18983719 66.12697815 -126.20267242 67.20610474 -126.21589661 68.31793213 C-126.22328354 69.49692078 -126.23067047 70.67590942 -126.23828125 71.890625 C-126.246353 73.10135681 -126.25442474 74.31208862 -126.26274109 75.55950928 C-126.27661189 78.13536131 -126.28732054 80.71123195 -126.29516602 83.28710938 C-126.31224532 87.19177434 -126.35608952 91.09556308 -126.40039062 95 C-126.41052896 97.50520212 -126.41904148 100.01041144 -126.42578125 102.515625 C-126.44328934 103.67032288 -126.46079742 104.82502075 -126.47883606 106.01470947 C-126.43700585 121.9850644 -120.44126006 136.09700027 -109.4765625 147.6484375 C-96.89237799 159.59745812 -82.31141826 165.41409686 -65.07958984 165.29833984 C-48.62706932 164.8565841 -34.37220081 157.73021454 -23 146 C-22.14148438 145.15501953 -22.14148438 145.15501953 -21.265625 144.29296875 C-9.70085745 132.04266086 -6.89939146 115.2447036 -6.79467773 99.09570312 C-6.78477814 98.138685 -6.77487854 97.18166687 -6.76467896 96.19564819 C-6.73329315 93.05753994 -6.70839789 89.91941659 -6.68359375 86.78125 C-6.66300439 84.59549585 -6.64200742 82.40974551 -6.62062073 80.22399902 C-6.56560466 74.48989964 -6.51610566 68.75576554 -6.46777344 63.02160645 C-6.41740839 57.16281063 -6.36180087 51.30406479 -6.30664062 45.4453125 C-6.19930961 33.96358444 -6.09780966 22.48181285 -6 11 C-6.99 10.67 -7.98 10.34 -9 10 C-10.32296047 3.62573591 -10.32296047 3.62573591 -9 1.0625 C-5.94226576 -0.56192132 -3.39237275 -0.30839752 0 0 Z M-4 3 C-4.66 4.32 -5.32 5.64 -6 7 C-4.68 7 -3.36 7 -2 7 C-2.33 5.68 -2.66 4.36 -3 3 C-3.33 3 -3.66 3 -4 3 Z M-131 54 C-131 54.99 -131 55.98 -131 57 C-130.01 56.67 -129.02 56.34 -128 56 C-128.33 55.34 -128.66 54.68 -129 54 C-129.66 54 -130.32 54 -131 54 Z " fill="#2562AE" transform="translate(146,5)"/>
<path d="M0 0 C0 4.62 0 9.24 0 14 C-1.815 14.226875 -3.63 14.45375 -5.5 14.6875 C-11.91406944 15.7766816 -17.25412716 17.42956477 -21.33984375 22.7421875 C-24.06947869 27.26891307 -25.10064666 31.28929114 -25.20532227 36.49316406 C-25.22526749 37.37377502 -25.24521271 38.25438599 -25.26576233 39.16168213 C-25.29083107 40.57438385 -25.29083107 40.57438385 -25.31640625 42.015625 C-25.33718735 42.98659119 -25.35796844 43.95755737 -25.37937927 44.95794678 C-25.44468862 48.05522685 -25.50367323 51.15259068 -25.5625 54.25 C-25.60570292 56.35157111 -25.64931778 58.4531338 -25.69335938 60.5546875 C-25.80035098 65.70303948 -25.9016709 70.85147558 -26 76 C-30.62 76 -35.24 76 -40 76 C-40 51.25 -40 26.5 -40 1 C-35.71 1 -31.42 1 -27 1 C-26.67 3.97 -26.34 6.94 -26 10 C-24.515 8.6078125 -24.515 8.6078125 -23 7.1875 C-16.30508133 1.4874086 -8.65907096 0 0 0 Z " fill="#2C3791" transform="translate(200,75)"/>
<path d="M0 0 C1.11375 0.2475 2.2275 0.495 3.375 0.75 C4.8533226 3.70664519 4.43532783 6.49229737 4.375 9.75 C3.385 10.08 2.395 10.41 1.375 10.75 C1.38499275 11.8630098 1.38499275 11.8630098 1.39518738 12.99850464 C1.45557901 20.02967629 1.50111584 27.0607564 1.53043652 34.0921154 C1.54601793 37.70605511 1.56711627 41.31977849 1.60131836 44.93359375 C1.63418345 48.42845884 1.65190942 51.92311732 1.65963173 55.41812515 C1.66778089 57.38435945 1.69115582 59.35051194 1.71488953 61.31661987 C1.71719789 73.75030744 -0.78176587 83.58089758 -9.51171875 92.7265625 C-19.05902217 101.54234366 -28.30517844 103.32996912 -40.99609375 103.0859375 C-50.22223853 102.63129954 -57.95137681 98.59433707 -64.58203125 92.265625 C-72.23899664 82.83716284 -74.80285381 72.83668871 -74.6875 60.9375 C-74.68298828 60.05384766 -74.67847656 59.17019531 -74.67382812 58.25976562 C-74.66209866 56.08981441 -74.64416495 53.91989828 -74.625 51.75 C-75.285 51.75 -75.945 51.75 -76.625 51.75 C-77.945 45.39 -77.945 45.39 -76.625 42.75 C-73.44945422 41.16222711 -70.9794356 41.94245069 -67.625 42.75 C-66.27060332 45.45879335 -66.55998549 47.75933268 -66.625 50.75 C-68.11 51.245 -68.11 51.245 -69.625 51.75 C-69.13312758 67.32030611 -68.47009724 79.10146047 -56.8125 90.5 C-48.64493384 96.26534082 -40.49664764 98.74857093 -30.5625 97.0625 C-21.69977556 94.96667799 -15.32286334 90.93865685 -9.625 83.75 C-6.1469344 77.64584453 -4.5104598 71.95259262 -4.46386719 64.94335938 C-4.45425964 63.7753479 -4.4446521 62.60733643 -4.43475342 61.40393066 C-4.43050354 60.14657104 -4.42625366 58.88921143 -4.421875 57.59375 C-4.41617493 56.29932983 -4.41047485 55.00490967 -4.40460205 53.67126465 C-4.39411574 50.93432219 -4.38825694 48.19740892 -4.38476562 45.46044922 C-4.37927184 41.95653375 -4.3552156 38.45300508 -4.32679367 34.94921112 C-4.30368106 31.60156461 -4.30171952 28.25397219 -4.296875 24.90625 C-4.2783548 23.02021057 -4.2783548 23.02021057 -4.25946045 21.09606934 C-4.26246155 19.92805786 -4.26546265 18.76004639 -4.26855469 17.55664062 C-4.26490906 16.52945923 -4.26126343 15.50227783 -4.25750732 14.44396973 C-4.67942013 11.35106366 -5.70663168 10.14144847 -7.625 7.75 C-7.5 4.625 -7.5 4.625 -6.625 1.75 C-3.625 -0.25 -3.625 -0.25 0 0 Z M-2.625 3.75 C-2.625 5.07 -2.625 6.39 -2.625 7.75 C-1.635 7.75 -0.645 7.75 0.375 7.75 C0.375 6.43 0.375 5.11 0.375 3.75 C-0.615 3.75 -1.605 3.75 -2.625 3.75 Z M-73.625 45.75 C-73.625 46.74 -73.625 47.73 -73.625 48.75 C-72.635 48.75 -71.645 48.75 -70.625 48.75 C-70.625 47.76 -70.625 46.77 -70.625 45.75 C-71.615 45.75 -72.605 45.75 -73.625 45.75 Z " fill="#2466B0" transform="translate(115.625,45.25)"/>
<path d="M0 0 C1.8125 1.0625 1.8125 1.0625 3 3 C3.3125 6.5625 3.3125 6.5625 3 10 C2.34 10.66 1.68 11.32 1 12 C0.69111747 13.91417024 0.69111747 13.91417024 0.72875977 16.12329102 C0.71857315 16.97500381 0.70838654 17.82671661 0.69789124 18.70423889 C0.69575119 19.62812912 0.69361115 20.55201935 0.69140625 21.50390625 C0.66622506 23.46159125 0.64082738 25.41927347 0.61523438 27.37695312 C0.58660808 30.4619867 0.5625951 33.54697146 0.54370117 36.63208008 C0.5218912 39.61045937 0.48241682 42.58823813 0.44140625 45.56640625 C0.44129044 46.47612686 0.44117462 47.38584747 0.4410553 48.32313538 C0.29970442 57.5825519 -1.96805048 65.76266479 -8.53125 72.59375 C-15.83798805 79.36908892 -22.72567796 80.59014093 -32.59375 80.34765625 C-40.30702159 79.5604072 -46.92450775 75.8602317 -52 70 C-56.36127918 63.62582274 -57.72710066 57.29031471 -58.54296875 49.6875 C-58.75775946 46.85653964 -58.75775946 46.85653964 -61 45 C-60.42307692 38.42307692 -60.42307692 38.42307692 -59 37 C-55.5625 36.8125 -55.5625 36.8125 -52 37 C-50 39 -50 39 -49.75 42 C-50 45 -50 45 -52 47 C-52.74736767 54.32420317 -50.855881 61.03114053 -46.3125 66.8125 C-41.24808978 72.13694106 -36.34514294 74.2132249 -29 74.5 C-24.18542683 74.34783271 -20.74034963 73.44420978 -16.62109375 70.97265625 C-15 70 -15 70 -12 69 C-10.91568906 67.25132517 -10.91568906 67.25132517 -10 65 C-9.484375 64.01 -8.96875 63.02 -8.4375 62 C-6.57352765 58.10997075 -5.87833631 54.95667636 -5.83886719 50.66210938 C-5.82925964 49.81442993 -5.8196521 48.96675049 -5.80975342 48.09338379 C-5.8033786 46.73231506 -5.8033786 46.73231506 -5.796875 45.34375 C-5.78832489 43.93482483 -5.78832489 43.93482483 -5.77960205 42.49743652 C-5.77016777 40.51376467 -5.76362432 38.53007725 -5.75976562 36.54638672 C-5.75003564 33.51111706 -5.71898762 30.47651779 -5.6875 27.44140625 C-5.68097194 25.51302485 -5.6757207 23.58463862 -5.671875 21.65625 C-5.6595282 20.74887085 -5.6471814 19.8414917 -5.63446045 18.90661621 C-5.6510217 14.22878513 -5.69743237 11.57212027 -9 8 C-8.875 4.875 -8.875 4.875 -8 2 C-4.76746204 -0.15502531 -3.74849077 -0.46856135 0 0 Z M-4 4 C-4 5.32 -4 6.64 -4 8 C-3.01 8 -2.02 8 -1 8 C-0.67 7.34 -0.34 6.68 0 6 C-0.33 5.34 -0.66 4.68 -1 4 C-1.99 4 -2.98 4 -4 4 Z M-56 40 C-56 41.32 -56 42.64 -56 44 C-55.34 44 -54.68 44 -54 44 C-54.33 42.68 -54.66 41.36 -55 40 C-55.33 40 -55.66 40 -56 40 Z " fill="#2466B0" transform="translate(108,59)"/>
<path d="M0 0 C1.2684375 0.12375 1.2684375 0.12375 2.5625 0.25 C4.5625 3.25 4.5625 3.25 4.25 5.375 C3.5625 7.25 3.5625 7.25 2.5625 8.25 C2.41123769 10.22513667 2.34076234 12.20678135 2.3125 14.1875 C2.28671875 15.26902344 2.2609375 16.35054687 2.234375 17.46484375 C2.34265625 18.38394531 2.4509375 19.30304688 2.5625 20.25 C3.5525 20.91 4.5425 21.57 5.5625 22.25 C5.8984375 24.30859375 5.8984375 24.30859375 5.9375 26.6875 C6.05581595 29.08221869 6.05581595 29.08221869 6.5625 31.25 C8.95237933 33.3886077 8.95237933 33.3886077 11.5625 34.25 C11.5625 32.93 11.5625 31.61 11.5625 30.25 C9.0875 29.26 9.0875 29.26 6.5625 28.25 C6.50191406 27.25097656 6.44132812 26.25195312 6.37890625 25.22265625 C6.25322266 23.28712891 6.25322266 23.28712891 6.125 21.3125 C6.04378906 20.02472656 5.96257812 18.73695312 5.87890625 17.41015625 C5.91330812 14.38976043 5.91330812 14.38976043 4.5625 13.25 C4.4375 10.25 4.4375 10.25 4.5625 7.25 C5.5625 6.25 5.5625 6.25 8.5625 6.125 C11.5625 6.25 11.5625 6.25 12.5625 7.25 C12.60330783 9.24958364 12.60504356 11.25045254 12.5625 13.25 C11.9025 13.25 11.2425 13.25 10.5625 13.25 C10.8925 17.54 11.2225 21.83 11.5625 26.25 C13.2125 26.25 14.8625 26.25 16.5625 26.25 C16.44867347 24.29098546 16.32108875 22.3327662 16.1875 20.375 C16.11789063 19.28445312 16.04828125 18.19390625 15.9765625 17.0703125 C15.82996509 14.11953526 15.82996509 14.11953526 13.5625 12.25 C14.11805556 7.69444444 14.11805556 7.69444444 15.5625 6.25 C17.22867115 6.20936168 18.89638095 6.207279 20.5625 6.25 C21.6875 8.5625 21.6875 8.5625 22.5625 11.25 C21.5725 12.735 21.5725 12.735 20.5625 14.25 C20.26797416 16.63677076 20.0696783 19.03626094 19.9375 21.4375 C19.86273438 22.70980469 19.78796875 23.98210937 19.7109375 25.29296875 C19.66195312 26.26878906 19.61296875 27.24460937 19.5625 28.25 C17.9125 28.91 16.2625 29.57 14.5625 30.25 C14.8925 31.57 15.2225 32.89 15.5625 34.25 C17.2125 33.59 18.8625 32.93 20.5625 32.25 C20.52769531 31.55132812 20.49289063 30.85265625 20.45703125 30.1328125 C20.42996094 29.22273438 20.40289062 28.31265625 20.375 27.375 C20.32279297 26.01761719 20.32279297 26.01761719 20.26953125 24.6328125 C20.36621094 23.84648438 20.46289062 23.06015625 20.5625 22.25 C21.5525 21.59 22.5425 20.93 23.5625 20.25 C23.96569167 17.38948767 23.96569167 17.38948767 23.8125 14.1875 C23.79703125 13.10339844 23.7815625 12.01929687 23.765625 10.90234375 C23.85799888 8.32848292 23.85799888 8.32848292 22.5625 7.25 C22.4375 4.25 22.4375 4.25 22.5625 1.25 C23.5625 0.25 23.5625 0.25 26 0.0625 C28.5625 0.25 28.5625 0.25 30.5625 2.25 C30.6875 4.875 30.6875 4.875 30.5625 7.25 C29.5725 7.58 28.5825 7.91 27.5625 8.25 C27.61470703 9.83941406 27.61470703 9.83941406 27.66796875 11.4609375 C27.69610399 12.84894252 27.72340443 14.23696463 27.75 15.625 C27.77513672 16.32367188 27.80027344 17.02234375 27.82617188 17.7421875 C27.85546875 19.7734375 27.85546875 19.7734375 27.5625 23.25 C26.5725 23.91 25.5825 24.57 24.5625 25.25 C24.28125454 27.2895984 24.28125454 27.2895984 24.375 29.5625 C24.14743454 32.49714628 23.96877916 33.8153985 21.9375 35.98828125 C18.71040433 38.15801414 16.41872277 39.23252607 12.5 39.3125 C8.8648835 37.99767063 5.84848088 36.28730814 2.5625 34.25 C2.5625 30.95 2.5625 27.65 2.5625 24.25 C1.2425 23.92 -0.0775 23.59 -1.4375 23.25 C-1.48648438 22.19039062 -1.53546875 21.13078125 -1.5859375 20.0390625 C-1.66096709 18.65101503 -1.73651485 17.26299549 -1.8125 15.875 C-1.8434375 15.17632812 -1.874375 14.47765625 -1.90625 13.7578125 C-2.03249498 9.54814173 -2.03249498 9.54814173 -4.4375 6.25 C-3.72185719 0.38172894 -3.72185719 0.38172894 0 0 Z M-0.4375 3.25 C0.5625 5.25 0.5625 5.25 0.5625 5.25 Z M25.5625 3.25 C25.5625 3.91 25.5625 4.57 25.5625 5.25 C26.2225 4.92 26.8825 4.59 27.5625 4.25 C26.9025 3.92 26.2425 3.59 25.5625 3.25 Z M7.5625 9.25 C7.5625 9.91 7.5625 10.57 7.5625 11.25 C8.2225 11.25 8.8825 11.25 9.5625 11.25 C9.5625 10.59 9.5625 9.93 9.5625 9.25 C8.9025 9.25 8.2425 9.25 7.5625 9.25 Z M17.5625 9.25 C18.5625 11.25 18.5625 11.25 18.5625 11.25 Z " fill="#265AA8" transform="translate(66.4375,90.75)"/>
<path d="M0 0 C1.670625 0.37125 1.670625 0.37125 3.375 0.75 C4.8533226 3.70664519 4.43532783 6.49229737 4.375 9.75 C3.6325 9.894375 2.89 10.03875 2.125 10.1875 C-0.14527739 10.65187492 -2.38259479 11.16863569 -4.625 11.75 C-6.1875 10.125 -6.1875 10.125 -7.625 7.75 C-7.5 4.625 -7.5 4.625 -6.625 1.75 C-3.625 -0.25 -3.625 -0.25 0 0 Z M-2.625 3.75 C-2.625 5.07 -2.625 6.39 -2.625 7.75 C-1.635 7.75 -0.645 7.75 0.375 7.75 C0.375 6.43 0.375 5.11 0.375 3.75 C-0.615 3.75 -1.605 3.75 -2.625 3.75 Z " fill="#1F6FB6" transform="translate(115.625,45.25)"/>
<path d="M0 0 C2 2 2 2 2.125 4.625 C2.08375 5.40875 2.0425 6.1925 2 7 C0.54293274 7.50367757 -0.91570096 8.00282556 -2.375 8.5 C-3.18710938 8.7784375 -3.99921875 9.056875 -4.8359375 9.34375 C-7 10 -7 10 -9 10 C-10.32296047 3.62573591 -10.32296047 3.62573591 -9 1.0625 C-5.94226576 -0.56192132 -3.39237275 -0.30839752 0 0 Z M-4 3 C-4.66 4.32 -5.32 5.64 -6 7 C-4.68 7 -3.36 7 -2 7 C-2.33 5.68 -2.66 4.36 -3 3 C-3.33 3 -3.66 3 -4 3 Z " fill="#2561AC" transform="translate(146,5)"/>
<path d="M0 0 C0.33 1.98 0.66 3.96 1 6 C-0.32 6 -1.64 6 -3 6 C-3 5.01 -3 4.02 -3 3 C-3.99 3 -4.98 3 -6 3 C-6 3.66 -6 4.32 -6 5 C-7.32 5 -8.64 5 -10 5 C-9.625 2.5625 -9.625 2.5625 -9 0 C-5.93109813 -1.53445094 -3.29905734 -0.54984289 0 0 Z " fill="#2465AE" transform="translate(48,88)"/>
<path d="M0 0 C1.8125 1.375 1.8125 1.375 3 3 C3 3.66 3 4.32 3 5 C1.68 5.33 0.36 5.66 -1 6 C-1 5.34 -1 4.68 -1 4 C-3.97670763 4.74378388 -3.97670763 4.74378388 -5.5625 6.5625 C-6.2740625 7.2740625 -6.2740625 7.2740625 -7 8 C-7.66 8 -8.32 8 -9 8 C-8.6875 5.125 -8.6875 5.125 -8 2 C-4.76746204 -0.15502531 -3.74849077 -0.46856135 0 0 Z " fill="#2850A0" transform="translate(108,59)"/>
<path d="M0 0 C2.9375 0.875 2.9375 0.875 4.3125 2.9375 C4.51875 3.576875 4.725 4.21625 4.9375 4.875 C1.92718256 5.80923645 1.07099732 5.91949911 -2.0625 4.875 C-2.3925 5.535 -2.7225 6.195 -3.0625 6.875 C-4.3825 6.875 -5.7025 6.875 -7.0625 6.875 C-6.75 4.5 -6.75 4.5 -6.0625 1.875 C-3.0625 -0.125 -3.0625 -0.125 0 0 Z " fill="#2850A0" transform="translate(125.0625,32.125)"/>
<path d="M0 0 C2 3 2 3 2 6 C0.68 6 -0.64 6 -2 6 C-2.33 5.34 -2.66 4.68 -3 4 C-5.31 4 -7.62 4 -10 4 C-7.59416551 -1.32720494 -5.61855601 -1.404639 0 0 Z " fill="#2A4A9C" transform="translate(137,19)"/>
<path d="M0 0 C1.175625 0.0825 2.35125 0.165 3.5625 0.25 C5.5625 3.25 5.5625 3.25 5.5625 6.25 C4.2425 6.25 2.9225 6.25 1.5625 6.25 C0.9025 5.59 0.2425 4.93 -0.4375 4.25 C-3.04030568 4.57041397 -3.04030568 4.57041397 -5.4375 5.25 C-4.32300984 0.31440072 -4.32300984 0.31440072 0 0 Z " fill="#2070B7" transform="translate(34.4375,76.75)"/>
<path d="M0 0 C1.32 0 2.64 0 4 0 C4.66 0.99 5.32 1.98 6 3 C6.33 2.67 6.66 2.34 7 2 C8.66617115 1.95936168 10.33388095 1.957279 12 2 C10.25 5.875 10.25 5.875 8 7 C6.65938457 6.69728039 5.32594105 6.36162029 4 6 C3.01 6 2.02 6 1 6 C0 5 0 5 -0.0625 2.4375 C-0.041875 1.633125 -0.02125 0.82875 0 0 Z " fill="#1E73B8" transform="translate(127,23)"/>
<path d="M0 0 C0.66 0 1.32 0 2 0 C2.1875 2.375 2.1875 2.375 2 5 C-1.4352048 7.29013653 -2.985331 7.17842973 -7 7 C-7.66 5.68 -8.32 4.36 -9 3 C-6.50935112 2.31292445 -4.62113708 2 -2 2 C-1.34 1.34 -0.68 0.68 0 0 Z " fill="#1E72B8" transform="translate(109,64)"/>
<path d="M0 0 C1.546875 0.185625 1.546875 0.185625 3.125 0.375 C5 2.875 5 2.875 6.125 5.375 C2.495 5.375 -1.135 5.375 -4.875 5.375 C-3.6502809 0.4761236 -3.6502809 0.4761236 0 0 Z " fill="#2073B9" transform="translate(15.875,54.625)"/>
<path d="M0 0 C0.33 1.32 0.66 2.64 1 4 C-2.63 4 -6.26 4 -10 4 C-9.67 2.68 -9.34 1.36 -9 0 C-5.93109813 -1.53445094 -3.29905734 -0.54984289 0 0 Z " fill="#2073B9" transform="translate(30,67)"/>
<path d="M0 0 C0 0.66 0 1.32 0 2 C-6.5 5 -6.5 5 -11 5 C-8.6102683 -1.65710974 -6.76304013 -1.12717335 0 0 Z " fill="#2A459A" transform="translate(119,46)"/>
<path d="M0 0 C1.175625 0.0825 2.35125 0.165 3.5625 0.25 C4.2225 1.24 4.8825 2.23 5.5625 3.25 C3.93798581 3.58569297 2.31287083 3.9184796 0.6875 4.25 C-0.21742188 4.435625 -1.12234375 4.62125 -2.0546875 4.8125 C-4.4375 5.25 -4.4375 5.25 -6.4375 5.25 C-4.03932371 0.293769 -4.03932371 0.293769 0 0 Z " fill="#2A459A" transform="translate(142.4375,4.75)"/>
<path d="M0 0 C1.32 0 2.64 0 4 0 C4 0.66 4 1.32 4 2 C7.465 1.505 7.465 1.505 11 1 C10.34 2.32 9.68 3.64 9 5 C7.35 4.67 5.7 4.34 4 4 C3.67 4.66 3.34 5.32 3 6 C1.5 4.6875 1.5 4.6875 0 3 C0 2.01 0 1.02 0 0 Z " fill="#294D9D" transform="translate(29,82)"/>
<path d="M0 0 C2.31 0 4.62 0 7 0 C7.66 1.32 8.32 2.64 9 4 C5.7 4 2.4 4 -1 4 C-0.67 2.68 -0.34 1.36 0 0 Z " fill="#1E75BB" transform="translate(49,96)"/>
<path d="M0 0 C3.63 0.33 7.26 0.66 11 1 C10.67 1.99 10.34 2.98 10 4 C6.6875 4.6875 6.6875 4.6875 3 5 C1.0625 3.6875 1.0625 3.6875 0 2 C0 1.34 0 0.68 0 0 Z " fill="#2A4B9D" transform="translate(38,93)"/>
<path d="M0 0 C7.625 0.875 7.625 0.875 11 2 C11 2.66 11 3.32 11 4 C7.78043217 5.07318928 7.09578311 4.870689 4 4 C3.01 4 2.02 4 1 4 C0.67 2.68 0.34 1.36 0 0 Z " fill="#2071B6" transform="translate(118,39)"/>
<path d="M0 0 C0 0.66 0 1.32 0 2 C-2.97 2 -5.94 2 -9 2 C-9 1.34 -9 0.68 -9 0 C-5.93109813 -1.53445094 -3.29905734 -0.54984289 0 0 Z " fill="#1D7BBE" transform="translate(48,88)"/>
<path d="M0 0 C3.1875 0.3125 3.1875 0.3125 6 1 C6 1.66 6 2.32 6 3 C3.03 3 0.06 3 -3 3 C-2.01 2.01 -1.02 1.02 0 0 Z " fill="#2B3D94" transform="translate(122,32)"/>
<path d="M0 0 C1.32 0 2.64 0 4 0 C4 1.65 4 3.3 4 5 C2.68 5 1.36 5 0 5 C0 3.35 0 1.7 0 0 Z " fill="#265DA8" transform="translate(116,48)"/>
<path d="M0 0 C0.33 0.66 0.66 1.32 1 2 C-1.97 2.66 -4.94 3.32 -8 4 C-7.67 3.01 -7.34 2.02 -7 1 C-4.53721199 -0.231394 -2.7204945 -0.07159196 0 0 Z " fill="#2C3C94" transform="translate(108,59)"/>
<path d="M0 0 C1.32 0 2.64 0 4 0 C4.33 1.32 4.66 2.64 5 4 C3.35 4.33 1.7 4.66 0 5 C0 3.35 0 1.7 0 0 Z " fill="#2561AB" transform="translate(127,23)"/>
<path d="M0 0 C1.9375 0.3125 1.9375 0.3125 4 1 C4.33 1.99 4.66 2.98 5 4 C3.35 4.33 1.7 4.66 0 5 C0 3.35 0 1.7 0 0 Z " fill="#285AA6" transform="translate(47,99)"/>
<path d="M0 0 C0.66 0 1.32 0 2 0 C2 1.65 2 3.3 2 5 C0.35 4.67 -1.3 4.34 -3 4 C-1.625 2 -1.625 2 0 0 Z " fill="#226AB2" transform="translate(109,64)"/>
</svg>
